<svg xmlns="http://www.w3.org/2000/svg" width="20" height="20" viewBox="0 0 20 20"><defs><style>.a{fill:#fff;}</style></defs><g transform="translate(0 -0.003)"><path class="a" d="M120.834,329.539a.625.625,0,1,1-.884,0,.625.625,0,0,1,.884,0" transform="translate(-114.603 -315.146)"/><path class="a" d="M180.717,329.539a.625.625,0,1,1-.884,0,.625.625,0,0,1,.884,0" transform="translate(-171.902 -315.146)"/><path class="a" d="M240.6,329.539a.625.625,0,1,1-.884,0,.625.625,0,0,1,.884,0" transform="translate(-229.201 -315.146)"/><path class="a" d="M18.663,11.533a.641.641,0,0,1-.019-.859A6.109,6.109,0,0,0,20,6.878C20,3.087,16.355,0,11.875,0S3.75,3.087,3.75,6.878c0,.152.025.3.038.446A6.708,6.708,0,0,0,0,13.128a6.109,6.109,0,0,0,1.355,3.8.641.641,0,0,1-.019.859L.183,18.936A.625.625,0,0,0,.625,20h7.5c4.231,0,7.713-2.751,8.087-6.25h3.162a.625.625,0,0,0,.442-1.067ZM8.125,18.753H2.134l.086-.086a1.9,1.9,0,0,0,.118-2.516A4.869,4.869,0,0,1,1.25,13.128c0-3.1,3.084-5.625,6.875-5.625S15,10.026,15,13.128,11.916,18.753,8.125,18.753Zm8.087-6.25c-.375-3.5-3.857-6.25-8.087-6.25a9.362,9.362,0,0,0-3.119.529c.064-3.057,3.118-5.528,6.869-5.528,3.791,0,6.875,2.523,6.875,5.625A4.869,4.869,0,0,1,17.662,9.9a1.9,1.9,0,0,0,.118,2.516l.086.086Z" transform="translate(0)"/></g></svg>