<svg xmlns="http://www.w3.org/2000/svg" width="20" height="15.911" viewBox="0 0 20 15.911"><defs><style>.a{fill:#fff;}</style></defs><path class="a" d="M0,4.426H4.426V0H0ZM1.172,1.172H3.254V3.254H1.172Zm0,0"/><path class="a" d="M149.3,0V4.426h14.168V0Zm13,3.254H150.469V1.172h11.824Zm0,0" transform="translate(-143.465)"/><path class="a" d="M0,151.434H4.426v-4.426H0Zm1.172-3.254H3.254v2.082H1.172Zm0,0" transform="translate(0 -141.266)"/><path class="a" d="M149.3,151.434h14.168v-4.426H149.3Zm1.172-3.254h11.824v2.082H150.469Zm0,0" transform="translate(-143.465 -141.266)"/><path class="a" d="M0,298.438H4.426v-4.426H0Zm1.172-3.254H3.254v2.082H1.172Zm0,0" transform="translate(0 -282.527)"/><path class="a" d="M149.3,298.438h14.168v-4.426H149.3Zm1.172-3.254h11.824v2.082H150.469Zm0,0" transform="translate(-143.465 -282.527)"/></svg>