<svg xmlns="http://www.w3.org/2000/svg" width="20" height="22.857" viewBox="0 0 20 22.857"><defs><style>.a{fill:#fff;}</style></defs><g transform="translate(-34.445)"><path class="a" d="M143.5,11.429a5.714,5.714,0,1,1,5.714-5.714A5.721,5.721,0,0,1,143.5,11.429Zm0-10a4.286,4.286,0,1,0,4.286,4.286A4.29,4.29,0,0,0,143.5,1.429Z" transform="translate(-99.051)"/><path class="a" d="M53.731,321.13H35.159a.714.714,0,0,1-.714-.714V315.5a2.142,2.142,0,0,1,.984-1.811,17.451,17.451,0,0,1,18.031,0,2.143,2.143,0,0,1,.985,1.811v4.917A.714.714,0,0,1,53.731,321.13ZM35.874,319.7H53.016v-4.2a.7.7,0,0,0-.313-.6,15.994,15.994,0,0,0-16.517,0,.7.7,0,0,0-.312.6Z" transform="translate(0 -298.273)"/></g></svg>