<svg xmlns="http://www.w3.org/2000/svg" xmlns:xlink="http://www.w3.org/1999/xlink" width="36" height="36" viewBox="0 0 36 36"><defs><style>.a{fill:#f8f8f8;stroke:#e4e4e4;}.b{clip-path:url(#a);}.c{fill:#42505c;}</style><clipPath id="a"><circle class="a" cx="18" cy="18" r="18" transform="translate(16 324)"/></clipPath></defs><g class="b" transform="translate(-16 -324)"><g transform="translate(20 330)"><g transform="translate(4.962)"><path class="c" d="M13.962,0a9.01,9.01,0,0,0-9,9c0,6.159,8.054,15.2,8.4,15.582a.811.811,0,0,0,1.206,0c.343-.382,8.4-9.423,8.4-15.582A9.01,9.01,0,0,0,13.962,0Zm0,13.528A4.528,4.528,0,1,1,18.49,9,4.533,4.533,0,0,1,13.962,13.528Z" transform="translate(-4.962)"/></g></g></g></svg>