<svg xmlns="http://www.w3.org/2000/svg" xmlns:xlink="http://www.w3.org/1999/xlink" width="36" height="36" viewBox="0 0 36 36"><defs><style>.a{fill:#fff;stroke:#e4e4e4;}.b{clip-path:url(#a);}.c{fill:#42505c;}</style><clipPath id="a"><circle class="a" cx="18" cy="18" r="18"/></clipPath></defs><g class="b"><g transform="translate(5.5 4)"><path class="c" d="M13.665,34.909A4.268,4.268,0,0,0,17.84,31.5H9.49a4.268,4.268,0,0,0,4.175,3.409Zm0,0" transform="translate(-2.301 -7.637)"/><path class="c" d="M19.332,14.362h-.014a7.964,7.964,0,0,1-7.954-7.954,7.883,7.883,0,0,1,.76-3.371c-.25-.024-.5-.038-.76-.038A7.954,7.954,0,0,0,3.41,10.954v3.168A7.619,7.619,0,0,1,.7,19.955,1.988,1.988,0,0,0,.071,22a2.085,2.085,0,0,0,2.043,1.458H20.608a2.083,2.083,0,0,0,2.077-1.576,1.992,1.992,0,0,0-.678-1.945,7.561,7.561,0,0,1-2.675-5.57Zm0,0" transform="translate(0 -0.727)"/><path class="c" d="M29.364,5.682A5.682,5.682,0,1,1,23.682,0,5.681,5.681,0,0,1,29.364,5.682Zm0,0" transform="translate(-4.364)"/></g></g></svg>