<svg xmlns="http://www.w3.org/2000/svg" xmlns:xlink="http://www.w3.org/1999/xlink" width="36" height="36" viewBox="0 0 36 36"><defs><style>.a{fill:#f8f8f8;stroke:#e4e4e4;}.b{clip-path:url(#a);}.c{fill:none;}.d{fill:red;}</style><clipPath id="a"><circle class="a" cx="18" cy="18" r="18" transform="translate(292 183)"/></clipPath></defs><g class="b" transform="translate(-292 -183)"><g transform="translate(298 189)"><rect class="c" width="25" height="25"/><g transform="translate(0 2.069)"><g transform="translate(0 0)"><path class="d" d="M18.1,2.069a7.254,7.254,0,0,0-5.6,2.976A7.254,7.254,0,0,0,6.9,2.069,6.708,6.708,0,0,0,0,8.571a6.162,6.162,0,0,0,.1,1.1v0c0,7.478,12.4,13.261,12.4,13.261S24.9,17.345,24.9,9.67v0a6.161,6.161,0,0,0,.1-1.1,6.708,6.708,0,0,0-6.9-6.5Z" transform="translate(0 -2.069)"/></g></g></g></g></svg>