<svg xmlns="http://www.w3.org/2000/svg" width="15" height="15" viewBox="0 0 15 15"><defs><style>.a{fill:#f8f8f8;}</style></defs><path class="a" d="M17,11.75V4.25A2.248,2.248,0,0,0,14.75,2H4.25A2.249,2.249,0,0,0,2,4.25v12a.75.75,0,0,0,1.28.53L6.06,14H14.75A2.248,2.248,0,0,0,17,11.75Zm-1.5,0a.742.742,0,0,1-.22.53.757.757,0,0,1-.244.164.748.748,0,0,1-.286.056h-9a.748.748,0,0,0-.53.22L3.5,14.439V4.25a.742.742,0,0,1,.22-.53.757.757,0,0,1,.244-.163A.748.748,0,0,1,4.25,3.5h10.5a.742.742,0,0,1,.53.22.757.757,0,0,1,.164.244.748.748,0,0,1,.056.286Z" transform="translate(-2 -2)"/></svg>