<svg xmlns="http://www.w3.org/2000/svg" width="88.817" height="83.182" viewBox="0 0 88.817 83.182"><defs><style>.a{fill:#79828b;}</style></defs><g transform="translate(0 -12.156)"><g transform="translate(37.964 25.237)"><path class="a" d="M178.372,81.448A2.058,2.058,0,0,0,176.944,81H169.1l7.324-8.177.686-.76.445-.538a2.482,2.482,0,0,0,.3-.556,1.855,1.855,0,0,0,.13-.668,1.391,1.391,0,0,0-.686-1.335,4.156,4.156,0,0,0-1.947-.371h-9.2a2,2,0,0,0-1.354.408,1.372,1.372,0,0,0-.482,1.094c0,.63.2,1,.63,1.15a5.994,5.994,0,0,0,1.854.223h5.934q-.371.519-.983,1.224l-1.539,1.743-2,2.225-2.392,2.652c-.834.927-1.372,1.558-1.632,1.854a1.743,1.743,0,0,0,.167,2.392,2.522,2.522,0,0,0,1.743.556h10.829a2.113,2.113,0,0,0,1.446-.426,1.41,1.41,0,0,0,.482-1.094A1.483,1.483,0,0,0,178.372,81.448Z" transform="translate(-163.789 -68.592)"/></g><g transform="translate(57.389 37.142)"><g transform="translate(0 0)"><path class="a" d="M259.109,130.233a1.631,1.631,0,0,0-1.15-.352h-6.23l5.841-6.527.556-.612.352-.426a1.981,1.981,0,0,0,.241-.445,1.523,1.523,0,0,0,.111-.538,1.113,1.113,0,0,0-.538-1.076,3.3,3.3,0,0,0-1.558-.3h-7.269a1.613,1.613,0,0,0-1.076.334,1.094,1.094,0,0,0-.389.872c0,.5.167.8.5.927a4.673,4.673,0,0,0,1.483.185h4.673c-.2.278-.464.593-.779.983l-1.224,1.391-1.595,1.854-1.854,2.114q-1,1.113-1.317,1.521a1.391,1.391,0,0,0,.13,1.854,2,2,0,0,0,1.317.352h8.641a1.688,1.688,0,0,0,1.15-.334,1.131,1.131,0,0,0,.371-.872A1.187,1.187,0,0,0,259.109,130.233Z" transform="translate(-247.596 -119.955)"/></g></g><g transform="translate(73.795 24.07)"><g transform="translate(0 0)"><path class="a" d="M332.915,76.542a2.058,2.058,0,0,0-1.428-.445h-7.825l7.324-8.177.668-.834.445-.538a2.537,2.537,0,0,0,.3-.556,1.856,1.856,0,0,0,.13-.668,1.391,1.391,0,0,0-.686-1.335,4.171,4.171,0,0,0-2.04-.426h-9.086a2,2,0,0,0-1.354.408,1.372,1.372,0,0,0-.482,1.094c0,.63.2,1,.63,1.15a6.008,6.008,0,0,0,1.854.223H327.3q-.371.519-.964,1.224L324.793,69.4l-2,2.225L320.4,74.279c-.834.927-1.372,1.558-1.632,1.854a1.706,1.706,0,0,0-.389,1.038,1.725,1.725,0,0,0,.556,1.354,2.522,2.522,0,0,0,1.706.5h10.829a2.113,2.113,0,0,0,1.446-.426,1.41,1.41,0,0,0,.482-1.094A1.482,1.482,0,0,0,332.915,76.542Z" transform="translate(-318.375 -63.557)"/></g></g><path class="a" d="M81.388,67.87a1.854,1.854,0,0,0-1.508-.034H79.9A39.385,39.385,0,0,1,29.146,14.8a1.854,1.854,0,0,0-2.392-2.5A43.131,43.131,0,1,0,82.271,70.339,1.855,1.855,0,0,0,81.388,67.87Z" transform="translate(0)"/></g></svg>