<svg xmlns="http://www.w3.org/2000/svg" width="25.452" height="25.452" viewBox="0 0 25.452 25.452"><path d="M18.969,2.038a.812.812,0,0,0,.012-.389.774.774,0,0,0-.029-.1.813.813,0,0,0-.274-.379.819.819,0,0,0-.664-.151.983.983,0,0,0-.1.029l-.017.006L1.548,6.773a.818.818,0,0,0-.062,1.52l7.076,3.145,3.145,7.076a.818.818,0,0,0,1.519-.062L18.954,2.089c.006-.016.011-.034.016-.05ZM9,9.842,4.036,7.636,15.068,3.775Zm7.224-4.91L12.364,15.964,10.158,11Z" transform="matrix(0.695, 0.719, -0.719, 0.695, 12.974, -1.414)"/></svg>