<svg xmlns="http://www.w3.org/2000/svg" width="15.193" height="12.661" viewBox="0 0 15.193 12.661"><defs><style>.a{fill:#79828b;}</style></defs><path class="a" d="M3.165,7.064V2.633a.633.633,0,1,0-1.266,0V7.064a.633.633,0,0,0,1.266,0ZM8.23,14.028v-5.7a.633.633,0,0,0-1.266,0v5.7a.633.633,0,0,0,1.266,0Zm5.064-5.7v-5.7a.633.633,0,1,0-1.266,0v5.7a.633.633,0,0,0,1.266,0ZM.633,10.23H1.9v3.8a.633.633,0,0,0,1.266,0v-3.8H4.431a.633.633,0,1,0,0-1.266H.633a.633.633,0,0,0,0,1.266ZM5.7,6.431H9.5a.633.633,0,1,0,0-1.266H8.23V2.633a.633.633,0,1,0-1.266,0V5.165H5.7a.633.633,0,1,0,0,1.266ZM10.762,11.5h1.266v2.532a.633.633,0,0,0,1.266,0V11.5H14.56a.633.633,0,1,0,0-1.266h-3.8a.633.633,0,0,0,0,1.266Z" transform="translate(0 -2)"/></svg>